<?xml version="1.0" standalone="no"?>
<!DOCTYPE svg PUBLIC "-//W3C//DTD SVG 20010904//EN"
 "http://www.w3.org/TR/2001/REC-SVG-20010904/DTD/svg10.dtd">
<svg version="1.0" xmlns="http://www.w3.org/2000/svg"
 width="200.000000pt" height="40.000000pt" viewBox="0 0 200.000000 40.000000"
 preserveAspectRatio="xMidYMid meet">
<metadata>
Created by potrace 1.10, written by Peter Selinger 2001-2011
</metadata>
<g transform="translate(0.000000,40.000000) scale(0.100000,-0.100000)"
fill="#000000" stroke="none">
<path d="M440 212 c0 -89 3 -162 8 -162 8 0 7 309 -2 317 -3 4 -6 -66 -6 -155z"/>
<path d="M119 337 c-58 -39 -81 -83 -77 -147 5 -64 26 -99 79 -129 72 -41 168
-21 213 45 52 76 22 200 -58 238 -50 23 -116 21 -157 -7z m138 -49 c12 -6 30
-27 39 -47 24 -51 4 -107 -48 -134 -107 -55 -206 82 -121 167 36 36 76 40 130
14z"/>
<path d="M528 273 c7 -3 12 -24 12 -53 0 -38 -4 -50 -17 -53 -10 -3 -2 -5 17
-6 23 0 30 2 22 8 -8 5 -12 20 -10 37 l4 29 17 -37 c10 -21 21 -38 25 -38 4 0
15 17 25 38 l17 37 -3 -37 c-3 -35 -1 -38 23 -37 14 0 19 3 13 6 -8 3 -13 24
-13 55 0 42 3 49 16 44 9 -3 19 -6 22 -6 12 0 13 -72 1 -86 -10 -12 10 -14
117 -13 71 0 123 3 117 6 -7 2 -13 19 -12 36 l1 32 16 -37 c10 -21 20 -38 24
-38 4 0 15 17 25 38 l17 37 4 -29 c2 -17 -2 -32 -10 -37 -8 -6 -1 -9 22 -9 29
1 32 2 18 11 -12 7 -18 22 -18 49 0 27 6 42 18 49 15 9 15 10 -5 11 -17 0 -29
-12 -47 -47 l-24 -48 -23 48 c-17 34 -29 47 -43 46 -12 0 -15 -3 -8 -6 7 -3
12 -24 12 -54 l0 -49 -63 0 c-61 0 -87 11 -87 35 0 7 10 17 23 23 22 10 22 11
-5 11 -16 1 -27 -4 -25 -10 1 -6 -4 -14 -10 -16 -9 -3 -13 6 -13 30 0 33 -1
35 -38 35 -36 1 -40 -2 -61 -46 l-23 -47 -24 48 c-16 30 -31 47 -42 46 -10 0
-12 -3 -4 -6z m216 -88 c3 -9 0 -15 -9 -15 -8 0 -15 7 -15 15 0 8 4 15 9 15 5
0 11 -7 15 -15z"/>
<path d="M1145 270 c-3 -5 1 -10 9 -10 20 0 22 -70 4 -88 -9 -9 -1 -12 38 -12
l51 0 -6 38 c-6 32 -10 37 -34 37 -22 -1 -27 4 -27 22 0 23 -23 32 -35 13z
m73 -73 c3 -22 -1 -27 -17 -27 -15 0 -21 6 -21 23 0 46 33 49 38 4z"/>
<path d="M1850 270 c-13 -8 -12 -10 3 -10 9 0 17 -4 17 -10 0 -5 -11 -10 -25
-10 -31 0 -50 -32 -35 -60 8 -15 21 -20 52 -20 34 0 39 2 28 15 -7 8 -11 34
-8 60 3 46 -4 53 -32 35z m15 -70 c0 -28 -29 -40 -38 -15 -9 22 3 46 22 43 10
-2 16 -13 16 -28z"/>
<path d="M1920 270 c0 -5 7 -10 15 -10 8 0 15 5 15 10 0 6 -7 10 -15 10 -8 0
-15 -4 -15 -10z"/>
<path d="M1060 221 c-16 -31 4 -63 37 -59 55 7 55 69 0 76 -18 2 -29 -3 -37
-17z m58 -15 c6 -29 -15 -43 -35 -24 -14 14 -14 20 -3 33 16 19 34 15 38 -9z"/>
<path d="M1265 230 c-4 -7 2 -9 19 -4 15 3 26 2 26 -4 0 -5 -12 -13 -26 -16
-17 -5 -24 -12 -22 -24 3 -14 16 -17 72 -19 61 -2 67 -1 54 14 -7 9 -11 19
-10 22 11 18 26 31 38 31 18 0 19 -56 2 -63 -7 -3 -2 -6 12 -6 22 -1 25 3 25
32 0 22 5 32 15 32 19 0 26 -45 8 -56 -9 -6 -5 -9 13 -9 24 0 25 2 20 38 l-6
37 -73 1 c-40 1 -75 -2 -78 -7 -3 -5 0 -9 5 -9 6 0 11 -11 11 -25 0 -40 -36
-27 -41 15 -3 18 -11 26 -31 28 -14 2 -29 -2 -33 -8z m45 -39 c0 -14 -18 -23
-31 -15 -8 4 -7 9 2 15 18 11 29 11 29 0z"/>
<path d="M1530 229 c0 -5 5 -9 10 -9 14 0 13 -33 -2 -48 -9 -9 -5 -12 18 -11
16 0 23 3 17 6 -7 2 -13 13 -13 23 0 21 25 44 40 35 14 -9 13 -52 -2 -58 -7
-3 1 -5 17 -5 17 0 24 2 18 5 -7 2 -13 13 -13 23 0 21 25 44 40 35 14 -9 13
-52 -2 -58 -7 -3 -1 -6 13 -6 23 -1 26 2 21 27 -2 15 -9 32 -13 38 -11 13
-149 16 -149 3z"/>
<path d="M1715 230 c-4 -7 2 -9 19 -4 15 3 26 2 26 -4 0 -5 -12 -13 -26 -16
-17 -5 -24 -12 -22 -24 2 -12 14 -18 46 -19 23 -1 42 2 42 8 0 5 -4 9 -9 9 -5
0 -11 12 -13 28 -2 21 -9 28 -30 30 -14 2 -29 -2 -33 -8z m45 -39 c0 -12 -20
-25 -27 -18 -7 7 6 27 18 27 5 0 9 -4 9 -9z"/>
<path d="M1910 230 c0 -5 5 -10 10 -10 15 0 12 -47 -2 -53 -7 -3 0 -6 17 -6
22 -1 26 2 18 10 -7 7 -9 25 -6 40 5 25 2 29 -16 29 -11 0 -21 -4 -21 -10z"/>
</g>
</svg>
